<?xml version="1.0" standalone="no"?>
<!DOCTYPE svg PUBLIC "-//W3C//DTD SVG 20010904//EN"
 "http://www.w3.org/TR/2001/REC-SVG-20010904/DTD/svg10.dtd">
<svg version="1.0" xmlns="http://www.w3.org/2000/svg"
 width="700.000000pt" height="700.000000pt" viewBox="0 0 700.000000 700.000000"
 preserveAspectRatio="xMidYMid meet">
<metadata>
Created by potrace 1.14, written by Peter Selinger 2001-2017
</metadata>
<g transform="translate(0.000000,700.000000) scale(0.100000,-0.100000)"
fill="#000000" stroke="none">
<path d="M3280 6994 c-19 -2 -84 -9 -145 -14 -578 -56 -1180 -283 -1660 -625
-237 -169 -531 -446 -709 -670 -416 -521 -673 -1147 -748 -1820 -17 -154 -17
-585 0 -730 69 -588 254 -1099 567 -1570 126 -189 242 -332 410 -504 580 -595
1295 -943 2140 -1043 145 -17 576 -17 730 0 822 91 1556 447 2131 1034 203
206 348 390 487 618 274 449 432 915 499 1465 16 135 16 591 0 730 -100 846
-447 1557 -1043 2141 -555 542 -1249 874 -2029 970 -117 15 -553 27 -630 18z
m-365 -3574 l361 -985 67 -3 c64 -3 67 -4 67 -27 l0 -25 -470 0 -470 0 0 25 0
25 100 0 c74 0 100 3 99 13 0 6 -46 147 -102 312 l-102 300 -284 0 -285 0
-108 -300 c-59 -165 -107 -306 -108 -312 0 -10 27 -13 105 -13 l105 0 0 -25 0
-25 -220 0 -220 0 0 25 c0 24 2 25 65 25 51 0 66 4 74 18 5 9 168 445 361 967
194 523 357 960 361 973 9 22 12 23 126 20 l117 -3 361 -985z m1780 947 c473
-85 702 -302 764 -724 16 -102 13 -361 -4 -474 -55 -366 -235 -586 -577 -703
-207 -71 -371 -86 -940 -86 l-448 0 0 25 c0 24 2 24 93 27 l92 3 0 950 0 950
-92 3 c-92 3 -93 3 -93 28 l0 26 558 -5 c458 -3 573 -7 647 -20z m1010 -1544
c81 -42 115 -104 115 -209 0 -86 -15 -135 -57 -183 -44 -52 -108 -76 -198 -75
-128 1 -210 62 -234 175 -15 67 -14 96 5 158 18 62 80 130 134 148 55 19 187
10 235 -14z"/>
<path d="M2184 3845 c-5 -11 -65 -177 -134 -370 l-126 -350 254 -3 c140 -1
256 -1 258 1 2 2 -52 170 -120 373 -94 279 -126 364 -132 349z"/>
<path d="M4235 4328 c-3 -7 -4 -436 -3 -953 l3 -940 105 3 c315 9 449 139 517
502 26 139 26 791 1 926 -24 124 -70 249 -116 309 -74 98 -165 139 -345 155
-137 12 -157 12 -162 -2z"/>
</g>
</svg>
